# xmcd
#
# Track frame offsets: 
#        150
#        18190
#        36460
#        54837
#        73045
#        90825
#        109075
#        127732
#        145927
#        163932
#        182355
#        200955
#        219647
#        237730
#        255727
#        273985
#        292297
#        311142
#        341100
#
# Disc length: 4583 seconds
#
# Revision: 1
# Processed by: cddbd v1.5.2PL0 Copyright (c) Steve Scherf et al.
# Submitted via: ExactAudioCopy v0.99pb3
#
DISCID=2811e513
DTITLE=Various Artist - Eurobeat Flash 19
DYEAR=1998
DGENRE=Eurobeat
TTITLE0=Fastway - Number One
TTITLE1=Tri-Star (Chris - Garcon - Nikita Jr.) - Dancing At Twin Star
TTITLE2=Sara - Show Me Your Love
TTITLE3=Lara - Japanese Lover
TTITLE4=Jeff Driller - Foxy Lady
TTITLE5=Toby Ash - Wild Boy
TTITLE6=Valentina - Standing Ovation
TTITLE7=Jee Bee - Every Time You Touch Me There
TTITLE8=The Flippers - Hypnotized
TTITLE9=Dee Dee - Cocaine
TTITLE10=Christine - Into The Light
TTITLE11=Mako - Money Money
TTITLE12=Mara Nell - Look Into My Eyes
TTITLE13=Tracy - Lovers
TTITLE14=Leslie Hammond - Feel My Body And My Soul
TTITLE15=Stop Limit Line - Body To Body
TTITLE16=Emiri Masubuchi - Babe Follow Me
TTITLE17=Rikako Kakiuchi - Desperado
TTITLE18=DATA TRACK
EXTD=YEAR: 1998
EXTT0=
EXTT1=
EXTT2=
EXTT3=
EXTT4=
EXTT5=
EXTT6=
EXTT7=
EXTT8=
EXTT9=
EXTT10=
EXTT11=
EXTT12=
EXTT13=
EXTT14=
EXTT15=
EXTT16=
EXTT17=
EXTT18=
PLAYORDER=
